# xmcd
#
# Track frame offsets:
#	150
#	12825
#	27750
#	39600
#	53400
#	66675
#	82200
#	99450
#	112650
#	124275
#	137025
#	147000
#
# Disc length: 2161 seconds
#
# Revision: 0
# Processed by: cddbd v1.5.2PL0 Copyright (c) Steve Scherf et al.
# Submitted via: EasyCDDAExtractor 16.0.6.1
#
DISCID=a0086f0c
DTITLE=Αηδονίδης Χρόνης - Τραγούδια Θράκης Μακεδονίας-Χ. Αηδονίδης 1
DYEAR=2005
DGENRE=Παραδοσιακή
TTITLE0=Μιά κόρη, μιά διαβάτισσα
TTITLE1=Άνοιξε Λενιώ την πόρτα
TTITLE2=Βασίλεψε Αυγερινός
TTITLE3=Μωρέ καλή μου λεμονιά
TTITLE4=Γω στα ξένα περπατούσα
TTITLE5=Νά 'μαν πουλί να πέταγα
TTITLE6=Τσ' παπαδιάς τα παραθύρια
TTITLE7=Σ' αυτό το αλώνι το φαρδύ
TTITLE8=Αυτά τα μαύρα που φορείς
TTITLE9=Παλληκάρια μου ντερβενιώτικα
TTITLE10=Βασιλκούδα
TTITLE11=Μάννα και γιος μαλώνανε
EXTD=
EXTT0=
EXTT1=
EXTT2=
EXTT3=
EXTT4=
EXTT5=
EXTT6=
EXTT7=
EXTT8=
EXTT9=
EXTT10=
EXTT11=
PLAYORDER=
